<?xml version="1.0" standalone="no"?><svg xmlns="http://www.w3.org/2000/svg" viewBox="0 0 1440 320"><path fill="#e8505b" fill-opacity="1" d="M0,0L26.7,32C53.3,64,107,128,160,133.3C213.3,139,267,85,320,85.3C373.3,85,427,139,480,160C533.3,181,587,171,640,181.3C693.3,192,747,224,800,202.7C853.3,181,907,107,960,85.3C1013.3,64,1067,96,1120,122.7C1173.3,149,1227,171,1280,165.3C1333.3,160,1387,128,1413,112L1440,96L1440,320L1413.3,320C1386.7,320,1333,320,1280,320C1226.7,320,1173,320,1120,320C1066.7,320,1013,320,960,320C906.7,320,853,320,800,320C746.7,320,693,320,640,320C586.7,320,533,320,480,320C426.7,320,373,320,320,320C266.7,320,213,320,160,320C106.7,320,53,320,27,320L0,320Z"></path></svg>